<svg width="32" height="30" viewBox="0 0 32 30" fill="none" xmlns="http://www.w3.org/2000/svg">
<g clip-path="url(#clip0_404_132)">
<path d="M15.0694 29.6585C22.6855 29.6585 28.8595 23.3577 28.8595 15.5852C28.8595 7.81279 22.6855 1.51196 15.0694 1.51196C7.45334 1.51196 1.2793 7.81279 1.2793 15.5852C1.2793 23.3577 7.45334 29.6585 15.0694 29.6585Z" fill="#FFD900"/>
<path d="M31.3275 16.1449C31.3306 17.2878 31.0035 18.4063 30.3871 19.3605C28.9468 21.4537 26.7429 22.2874 24.6506 20.6054C27.0022 14.1574 24.7597 1.53611 16.0923 3.96328C16.0381 3.9617 15.9844 3.97444 15.9365 4.00035C15.9244 4.0053 15.9147 4.01027 15.905 4.01522C15.8953 4.02017 15.8783 4.02258 15.8662 4.02752C15.8196 4.04118 15.7777 4.06773 15.745 4.10422C14.5921 4.77358 13.6219 5.7271 12.9231 6.87768C12.1267 8.18736 11.5828 9.64022 11.3204 11.1582C11.0219 13.1199 10.9535 15.111 11.1168 17.0892C11.1774 18.2944 11.2452 19.504 11.238 20.7216C11.2878 21.5683 11.0966 22.4116 10.6876 23.15C10.2785 23.8884 9.66897 24.4904 8.93237 24.8833C6.8667 25.9426 4.33992 25.1826 2.72084 23.6565C1.2805 22.3003 0.902984 19.8979 0.660606 18.0248C0.576541 17.311 0.568391 16.5902 0.636345 15.8747C0.845735 14.647 1.17379 13.4435 1.61561 12.2818C1.65681 12.2076 1.69556 12.1334 1.73677 12.0666C1.7457 12.0508 1.75038 12.0329 1.75038 12.0146C1.75038 11.9964 1.7457 11.9785 1.73677 11.9627C2.79745 9.3142 4.44653 6.9534 6.55401 5.06645C8.41519 3.30187 10.6707 2.02815 13.1243 1.35612C14.2809 1.08423 15.4577 0.910509 16.6424 0.836692C16.8848 0.821851 19.8358 0.774859 19.8455 0.826803C19.8549 0.88579 19.8791 0.9413 19.9156 0.988044C19.9521 1.03479 19.9998 1.07114 20.054 1.09373C20.1082 1.11631 20.1672 1.12438 20.2253 1.11705C20.2834 1.10972 20.3387 1.08729 20.3859 1.05191C20.7325 1.1459 21.1016 1.18542 21.4433 1.28931C22.4026 1.57703 23.3242 1.98257 24.1877 2.49703C25.6073 3.35487 26.8962 4.42012 28.0136 5.65887C30.0132 7.82323 31.0397 11.0358 31.1845 13.9972C31.1863 14.7155 31.2341 15.433 31.3275 16.1449Z" fill="#191718"/>
<path d="M21.2898 8.42057C21.9054 8.37605 22.8076 8.40333 23.273 8.86836C23.6172 9.21218 23.0428 9.72662 22.7035 9.37042C22.4202 9.22155 22.1058 9.14516 21.7873 9.14781C21.5216 9.12989 21.2546 9.1507 20.9946 9.20964C20.4701 9.35062 19.965 9.55838 19.4913 9.82803C19.442 9.85087 19.3869 9.85687 19.334 9.84509C19.2811 9.8333 19.2334 9.80439 19.198 9.76265C19.1625 9.72092 19.1413 9.66857 19.1374 9.61349C19.1335 9.55841 19.1471 9.50353 19.1762 9.45701C19.4403 9.14592 19.7642 8.89347 20.1277 8.7152C20.4913 8.53693 20.8868 8.43662 21.2898 8.42057Z" fill="#191718"/>
<path d="M20.9012 12.6715C20.5436 12.6691 20.1907 12.588 19.8665 12.4338C19.5423 12.2796 19.2546 12.0558 19.0228 11.7778C18.7756 11.5206 19.144 11.1199 19.4282 11.3104C20.0028 11.7583 20.7103 11.9922 21.4332 11.9733C22.0161 11.8606 22.5864 11.6882 23.1354 11.4588C23.6062 11.3475 23.7412 12.092 23.2735 12.2108C22.8444 12.3196 22.473 12.5917 22.0222 12.6659C21.6495 12.7024 21.2743 12.7043 20.9012 12.6715Z" fill="#191718"/>
<path d="M20.9814 18.1639C20.3852 19.3617 18.9352 19.8812 17.679 19.8237C16.389 19.7668 15.7442 19.1707 14.8311 18.4707C16.1478 16.8629 19.5489 15.853 20.8245 18.0075C20.8618 18.0733 20.9161 18.1273 20.9814 18.1639Z" fill="#191718"/>
<path d="M17.995 14.3856C18.4797 14.3856 18.4191 15.1499 17.9416 15.1499C17.2387 15.1499 16.3389 15.0213 16.5183 14.0814C16.6128 13.5762 16.7606 13.0839 16.8818 12.5868C17.0321 11.9733 16.9667 11.3351 17.1557 10.7408C17.1759 10.6856 17.213 10.6387 17.2616 10.6068C17.3101 10.575 17.3675 10.56 17.425 10.5642C17.4826 10.5683 17.5373 10.5914 17.581 10.6299C17.6246 10.6684 17.6548 10.7204 17.6671 10.7779C17.8363 11.4564 17.8153 12.1697 17.6066 12.8365C17.5241 13.1581 17.4248 13.4846 17.3545 13.8143C17.2381 14.3454 17.5853 14.3838 17.995 14.3856Z" fill="#191718"/>
<path d="M20.8243 18.0081C19.5519 15.8531 16.1477 16.8604 14.8309 18.4713C15.7453 19.1713 16.39 19.7699 17.6789 19.8244C18.935 19.8813 20.3844 19.3618 20.9813 18.164C20.9161 18.1275 20.8618 18.0737 20.8243 18.0081ZM17.9079 16.1004C19.3792 16.0831 20.725 16.2513 21.5497 17.6569C21.5656 17.6865 21.5778 17.7181 21.586 17.7509C21.6468 17.7855 21.6929 17.8419 21.7153 17.9092C21.7377 17.9765 21.7348 18.0499 21.7072 18.1151C20.6626 20.9999 16.0434 21.2448 14.4359 18.7879C14.4117 18.7485 14.3983 18.7033 14.397 18.6568C14.363 18.6292 14.3381 18.5917 14.3255 18.5493C14.313 18.5069 14.3134 18.4615 14.3268 18.4193C14.6952 17.0484 16.6373 16.1146 17.9079 16.1004Z" fill="#191718"/>
<path d="M15.2987 11.9609C14.7759 12.3522 14.1375 12.5486 13.4899 12.5174C12.9378 12.5029 12.4017 12.3253 11.9466 12.0061C11.9168 12.2936 11.9095 12.583 11.9247 12.8718C12.3947 13.1273 12.9095 13.2856 13.4396 13.3374C13.8678 13.3803 14.3 13.3359 14.7112 13.2068C15.1224 13.0778 15.5044 12.8666 15.8349 12.5855C16.2633 12.2776 15.7252 11.6666 15.2987 11.9609Z" fill="#191718"/>
<path d="M16.2106 9.65987C15.1545 9.13815 13.9487 9.02539 12.8173 9.3426C12.6327 9.72682 12.4675 10.1204 12.3223 10.5219C12.6081 10.3351 12.9128 10.1805 13.2312 10.0606C14.0818 9.80884 14.9951 9.90653 15.7761 10.3327C16.2203 10.5701 16.662 9.9097 16.2106 9.65987Z" fill="#191718"/>
<path d="M31.8729 14.9409C31.9095 14.8862 31.9289 14.8216 31.9286 14.7554C31.9553 13.1616 31.7174 11.5747 31.2251 10.0618C30.6919 8.44351 29.9745 6.54813 28.7717 5.31877C26.4691 2.97322 23.7944 0.680866 20.429 0.367961C20.3926 0.324918 20.3446 0.293888 20.2909 0.278887C18.0434 -0.287557 15.2118 0.110717 13.0007 0.667267C10.4349 1.37799 8.07837 2.71843 6.13658 4.57175C4.25815 6.26428 2.28151 8.66673 1.455 11.1162C1.20293 11.8681 0.989629 12.6133 0.783002 13.3652C0.592723 13.8785 0.445216 14.4073 0.341931 14.9458C0.320117 15.0225 0.298243 15.0992 0.281277 15.1734C0.0438161 15.97 -0.0384662 16.8063 0.0389578 17.6352C0.093128 19.1507 0.418409 20.6433 0.998767 22.0393C1.33233 22.8457 1.82329 23.5742 2.44173 24.1806C3.06018 24.787 3.79317 25.2585 4.59598 25.5664C5.39879 25.8743 6.25456 26.012 7.11126 25.9714C7.96796 25.9307 8.80756 25.7124 9.57891 25.3298C10.074 25.0939 10.5125 24.7502 10.8635 24.3229C11.2145 23.8956 11.4695 23.3949 11.6107 22.8563C11.5119 22.7275 11.4383 22.5805 11.3938 22.4234C11.3241 22.1829 11.2465 21.9454 11.1659 21.7098C11.0762 22.3834 10.8268 23.0245 10.4392 23.5775C10.0517 24.1304 9.5378 24.5784 8.94212 24.8827C6.87645 25.942 4.3502 25.182 2.73051 23.6558C1.29017 22.2997 0.912727 19.8973 0.670349 18.0242C0.586359 17.3105 0.578209 16.5895 0.646087 15.874C0.855662 14.6463 1.18383 13.4429 1.62587 12.2812C1.66707 12.207 1.7059 12.1328 1.7471 12.066C1.75598 12.0502 1.76064 12.0323 1.76064 12.0141C1.76064 11.9959 1.75598 11.978 1.7471 11.9621C2.80774 9.31361 4.45683 6.95273 6.56434 5.06581C8.42546 3.30115 10.681 2.02742 13.1346 1.35548C14.2913 1.08357 15.468 0.909853 16.6528 0.836056C16.8951 0.821214 19.8455 0.774222 19.8552 0.826167C19.8648 0.885061 19.889 0.940466 19.9256 0.987105C19.9621 1.03374 20.0097 1.07008 20.0639 1.09264C20.118 1.11519 20.177 1.1232 20.235 1.11596C20.2931 1.10872 20.3484 1.08647 20.3957 1.05127C20.7423 1.14526 21.1107 1.18486 21.4525 1.28875C22.4118 1.57645 23.3333 1.98199 24.1968 2.49646C25.6164 3.35429 26.9054 4.41947 28.0228 5.65823C30.0224 7.82259 31.0488 11.0351 31.1942 13.9966C31.1941 14.7156 31.2403 15.4339 31.3324 16.1468C31.3355 17.2897 31.0084 18.4081 30.3919 19.3624C28.9843 21.4086 26.846 22.2502 24.796 20.7148C24.7072 20.9362 24.6135 21.1582 24.5149 21.3808C26.4194 22.8142 28.4124 22.3968 30.229 20.8372C31.8608 19.4242 32.2365 17.0236 31.8729 14.9409Z" fill="#191718"/>
</g>
<defs>
<clipPath id="clip0_404_132">
<rect width="32" height="29.6585" fill="white"/>
</clipPath>
</defs>
</svg>
