<svg width="32" height="37" viewBox="0 0 32 37" fill="none" xmlns="http://www.w3.org/2000/svg">
<g clip-path="url(#clip0_404_120)">
<path d="M17.3148 25.2228C17.4412 25.2495 17.573 25.2308 17.6871 25.1701C17.8012 25.1094 17.8904 25.0105 17.939 24.8908C17.9839 24.7728 17.8085 24.6904 17.7205 24.7722C17.6069 24.8774 17.4658 24.9484 17.3135 24.9769C17.2981 24.9787 17.2833 24.9839 17.2701 24.992C17.2569 25.0002 17.2456 25.0111 17.2371 25.0241C17.2286 25.0371 17.223 25.0518 17.2208 25.0671C17.2186 25.0825 17.2198 25.0981 17.2243 25.113C17.2218 25.1395 17.23 25.166 17.2469 25.1865C17.2639 25.2071 17.2883 25.2202 17.3148 25.2228Z" fill="#101013"/>
<path d="M15.3442 25.2696C15.3485 25.2682 15.3526 25.2666 15.3567 25.2647C15.3679 25.2647 15.3785 25.2728 15.3898 25.2753C15.5533 25.3121 15.6226 25.0774 15.459 25.0406C15.3064 25.0095 15.1719 24.9198 15.0845 24.7909C15.0296 24.7091 14.8667 24.7116 14.8454 24.8202C14.8332 24.8864 14.8381 24.9547 14.8598 25.0185C14.8814 25.0822 14.919 25.1394 14.9691 25.1845C15.0191 25.2295 15.0799 25.261 15.1455 25.276C15.2112 25.2909 15.2796 25.2887 15.3442 25.2696Z" fill="#101013"/>
<path d="M15.8714 34.7802C23.1855 34.7802 29.1148 28.8509 29.1148 21.5368C29.1148 14.2226 23.1855 8.29333 15.8714 8.29333C8.55722 8.29333 2.62793 14.2226 2.62793 21.5368C2.62793 28.8509 8.55722 34.7802 15.8714 34.7802Z" fill="#FFD900"/>
<path d="M30.7913 25.2728C29.6796 25.6648 28.5029 25.3383 28.0448 26.2534C27.5866 27.1685 27.3918 28.5399 26.0847 28.6061C25.1197 28.6548 24.511 28.0618 23.8637 27.8009C24.3037 26.5516 24.5277 25.2365 24.526 23.912C24.526 18.0942 22.5554 14.1342 16.2239 14.0212C10.3469 13.9163 7.51104 17.7803 7.51104 23.5967C7.5142 25.3845 7.94391 27.1457 8.76448 28.7341C8.53285 28.8026 8.29015 28.8257 8.04975 28.8021C6.15399 28.6055 6.87247 27.6904 5.89307 27.495C4.91367 27.2996 4.28008 28.191 3.01729 27.5381C2.10842 27.0686 2.97297 26.2085 2.18832 25.7522C1.40368 25.2959 0.577212 25.7078 0.40243 24.4014C0.200183 22.8882 1.49169 22.1136 1.36123 21.5243C1.23077 20.9351 -0.123787 20.4363 0.00917137 18.7378C0.14213 17.0393 1.52103 16.6348 1.92615 15.5131C2.49232 13.945 1.83064 13.6148 1.53414 11.0693C1.31629 9.1966 3.25324 7.54055 4.49606 7.32395C5.97796 7.06302 6.89307 6.71408 7.28508 5.53805C7.67709 4.36202 6.24013 2.74904 7.93801 0.875132C8.97546 -0.26719 10.2039 0.571137 11.2501 0.635432C12.2963 0.699727 12.7526 0.308965 13.7988 0.0480412C14.845 -0.212883 15.825 0.700975 16.3481 1.35516C16.4631 1.49791 16.6054 1.61635 16.7666 1.70359C16.9278 1.79083 17.1048 1.84512 17.2872 1.8633C17.4696 1.88149 17.6539 1.8632 17.8291 1.8095C18.0044 1.75581 18.1672 1.66778 18.3082 1.55054C18.7002 1.09298 19.4187 -0.017502 20.8575 0.177255C21.3826 0.196283 21.88 0.417812 22.2453 0.79542C22.6107 1.17303 22.8158 1.6774 22.8175 2.20285C22.8175 3.05241 22.6209 3.90197 23.2751 4.22844C23.9293 4.55491 25.3007 4.55491 25.4318 5.33893C25.5629 6.12295 25.7582 6.97251 26.6733 7.16914C27.5884 7.36577 30.071 7.03805 30.8556 8.80272C31.6403 10.5674 30.267 11.6785 29.6783 12.5281C29.0897 13.3776 28.9599 15.2072 30.0703 15.9269C31.1808 16.6467 31.6396 17.5605 31.051 19.0636C30.4624 20.5668 31.2476 21.4157 31.7695 22.3314C32.2913 23.2472 31.8987 24.8808 30.7913 25.2728Z" fill="black"/>
<path d="M13.4014 34.4301C14.2729 33.9279 15.2528 33.6436 16.2578 33.6011C17.2359 33.5809 18.1926 33.8886 18.9756 34.475C18.9756 34.475 17.7316 36.8708 16.3496 36.9625C14.9675 37.0543 13.4014 34.4301 13.4014 34.4301Z" fill="black"/>
<path d="M14.7012 29.8458C14.9852 30.1281 15.3402 30.3285 15.7287 30.4258C16.1171 30.5232 16.5247 30.5138 16.9083 30.3987C17.2918 30.2837 17.6373 30.0671 17.908 29.772C18.1787 29.4769 18.3648 29.1142 18.4465 28.7222" stroke="black" stroke-linecap="round" stroke-linejoin="round"/>
<path d="M20.0818 23.7416H20.1311C20.3714 23.7357 20.6003 23.6376 20.7703 23.4676C20.9403 23.2976 21.0384 23.0687 21.0443 22.8283C21.0335 22.7476 21.0227 22.6667 21.0118 22.5855C20.9699 22.433 20.889 22.2941 20.7771 22.1823L20.5899 22.0393C20.45 21.9574 20.2907 21.9143 20.1286 21.9145H20.0793C19.8389 21.9203 19.61 22.0184 19.44 22.1885C19.27 22.3585 19.1719 22.5874 19.166 22.8277C19.1766 22.9089 19.1879 22.9894 19.1985 23.0705C19.2405 23.223 19.3214 23.3619 19.4332 23.4738L19.6205 23.6167C19.7601 23.6986 19.9192 23.7417 20.0811 23.7416" fill="#231F20"/>
<path d="M12.2217 23.0943L10.5887 22.7391C10.5304 22.7245 10.4687 22.7328 10.4164 22.7625C10.3641 22.7921 10.3252 22.8407 10.3078 22.8982C10.2924 22.9566 10.3004 23.0186 10.3302 23.0711C10.3599 23.1236 10.409 23.1624 10.467 23.1791L11.1268 23.3227C10.828 23.3976 10.5304 23.4767 10.2341 23.5599C10.1757 23.5761 10.1261 23.6148 10.0962 23.6675C10.0663 23.7202 10.0585 23.7827 10.0747 23.8411C10.0908 23.8996 10.1295 23.9492 10.1822 23.9791C10.235 24.009 10.2974 24.0168 10.3559 24.0006C10.973 23.8267 11.5949 23.6712 12.2217 23.5343C12.269 23.5201 12.3105 23.4911 12.34 23.4514C12.3695 23.4118 12.3854 23.3637 12.3854 23.3143C12.3854 23.2649 12.3695 23.2168 12.34 23.1771C12.3105 23.1375 12.269 23.1084 12.2217 23.0943Z" fill="#231F20"/>
<path d="M14.5213 22.6385C14.4831 23.7692 14.6791 24.8956 15.0968 25.9469C15.1701 26.1738 15.2925 26.3818 15.4553 26.556C15.6181 26.7303 15.8173 26.8665 16.0387 26.955C16.2451 27.028 16.4705 27.0263 16.6757 26.9504C16.881 26.8744 17.0532 26.729 17.1623 26.5393C17.3258 26.149 17.3642 25.7176 17.2722 25.3046C17.1919 24.7441 17.1643 24.1773 17.1898 23.6117C17.2113 22.6043 17.6126 21.6422 18.3134 20.9182C18.678 20.5495 19.1575 20.3162 19.6727 20.2568C20.1878 20.1974 20.7078 20.3156 21.1467 20.5917C21.3877 20.7603 21.6162 20.3645 21.3771 20.1972C20.9974 19.9517 20.5608 19.8081 20.1095 19.7804C19.6581 19.7526 19.2073 19.8416 18.8003 20.0387C17.9921 20.4488 17.3715 21.1525 17.0656 22.0056C16.7142 23.0196 16.6217 24.1053 16.7966 25.1641C16.9101 25.5545 16.8915 25.9715 16.7435 26.3502C16.4732 26.7615 15.9364 26.4694 15.7223 26.1629C15.4315 25.667 15.2381 25.1202 15.1524 24.5518C15.0193 23.9229 14.9608 23.2805 14.9782 22.6379C14.9751 22.5795 14.9498 22.5244 14.9073 22.4841C14.8649 22.4438 14.8086 22.4214 14.75 22.4214C14.6915 22.4214 14.6352 22.4438 14.5928 22.4841C14.5503 22.5244 14.5249 22.5795 14.5219 22.6379" fill="#231F20"/>
<path d="M12.6436 21.1872C11.7238 20.8667 10.7321 20.8126 9.78281 21.0312C9.49629 21.0936 9.61739 21.5368 9.90391 21.4713C10.7738 21.2751 11.6816 21.3294 12.5219 21.6279C12.7997 21.7259 12.9189 21.2846 12.6436 21.1872Z" fill="#231F20"/>
</g>
<defs>
<clipPath id="clip0_404_120">
<rect width="32" height="36.9657" fill="white"/>
</clipPath>
</defs>
</svg>
