<svg width="104" height="45" viewBox="0 0 104 45" fill="none" xmlns="http://www.w3.org/2000/svg">
<g clip-path="url(#clip0_404_59)">
<path d="M103.999 16.4279C103.999 7.35502 96.6339 -3.8147e-06 87.5481 -3.8147e-06C78.4622 -3.8147e-06 71.0967 7.35502 71.0967 16.4279C71.0967 25.5008 78.4622 32.8558 87.5481 32.8558C96.6339 32.8558 103.999 25.5008 103.999 16.4279Z" fill="#FFD900"/>
<path d="M30.4576 17.8182C30.4576 26.502 25.9284 31.5843 20.4384 31.5843C19.2793 31.6482 18.1282 31.3566 17.1396 30.7487C16.1511 30.1409 15.3722 29.2457 14.9075 28.1833C14.198 29.2671 13.2204 30.1496 12.0692 30.7454C10.918 31.3412 9.63222 31.6302 8.3364 31.5843C5.1711 31.5843 1.56317 29.8634 1.56317 23.4601V16.496C1.56317 14.7355 0.000976562 14.3356 0.000976562 13.4553V13.3315C0.0122621 13.1191 0.0991517 12.9176 0.245998 12.7635C0.392845 12.6094 0.589988 12.5127 0.801906 12.4909L5.93111 11.7307C6.9329 11.6069 7.53422 11.7703 7.53422 12.731L7.45488 25.8174C7.4152 27.9382 8.17522 29.2976 9.61839 29.2976C12.5444 29.2976 14.026 24.9359 14.026 21.2935V16.496C14.026 14.7355 12.4626 14.3356 12.4626 13.4553V13.3315C12.4764 13.1128 12.5697 12.9068 12.7249 12.7519C12.8802 12.5971 13.0867 12.5043 13.3057 12.4909L17.9935 11.649C18.9965 11.4892 19.6375 11.7728 19.6375 12.7298L19.5135 25.6961C19.4739 27.9382 20.1148 29.2976 21.718 29.2976C24.5237 29.2976 27.3691 24.9359 27.3691 20.7747C27.3691 17.3329 23.7228 17.1324 23.7228 14.0508C23.7085 13.7111 23.767 13.3723 23.8946 13.0571C24.0221 12.7418 24.2156 12.4575 24.4621 12.223C24.7087 11.9885 25.0026 11.8094 25.3241 11.6976C25.6456 11.5858 25.9874 11.5439 26.3264 11.5747C28.8941 11.5747 30.4576 13.8564 30.4576 17.8182Z" fill="black"/>
<path d="M33.8203 30.5047V30.3438C33.8203 29.3422 35.3428 29.0228 35.3428 27.3019V18.2578C35.3428 16.4972 33.8203 16.0565 33.8203 15.1762V15.0524C33.8203 14.6921 34.1402 14.4916 34.6622 14.2105L39.6711 11.7344C40.6741 11.254 41.3151 11.8136 41.3151 12.5342V27.3006C41.3151 29.0215 42.9976 29.3409 42.9976 30.3425V30.5035C42.9976 30.9034 42.6368 31.1832 42.0764 31.1832H34.7019C34.1799 31.1844 33.8203 30.9021 33.8203 30.5047ZM34.382 5.61092C34.3945 5.11581 34.5095 4.62864 34.7197 4.18005C34.9299 3.73146 35.2308 3.33113 35.6034 3.00427C35.976 2.67741 36.4124 2.43106 36.8849 2.28073C37.3575 2.13039 37.8561 2.07932 38.3494 2.13071C38.8398 2.08107 39.3352 2.13466 39.8035 2.28804C40.2718 2.44142 40.7027 2.69118 41.0684 3.02118C41.4341 3.35118 41.7264 3.7541 41.9264 4.20391C42.1265 4.65372 42.2298 5.14042 42.2298 5.63259C42.2298 6.12476 42.1265 6.61146 41.9264 7.06127C41.7264 7.51108 41.4341 7.91399 41.0684 8.24399C40.7027 8.57399 40.2718 8.82374 39.8035 8.97712C39.3352 9.1305 38.8398 9.1841 38.3494 9.13445C37.8529 9.18456 37.3513 9.13118 36.8764 8.97767C36.4016 8.82416 35.9638 8.57386 35.5909 8.24264C35.2179 7.91143 34.9179 7.5065 34.7098 7.05349C34.5017 6.60048 34.3901 6.10925 34.382 5.61092Z" fill="black"/>
<path d="M45.8809 30.5047V30.3438C45.8809 29.3422 47.4443 29.0227 47.4443 27.3414V7.6562C47.4443 5.85482 45.8809 5.45368 45.8809 4.61427V4.45579C45.8809 4.0559 46.2007 3.85411 46.6818 3.65478L51.7304 1.17865C52.7731 0.657419 53.3744 1.21826 53.3744 1.8992V27.3501C53.3744 29.0314 55.0978 29.3508 55.0978 30.3524V30.5134C55.0978 30.9133 54.6973 31.1931 54.1754 31.1931H46.8008C46.2454 31.1844 45.8809 30.9046 45.8809 30.5047Z" fill="black"/>
<path d="M57.9023 30.5047V30.3438C57.9023 29.3422 59.4645 29.0227 59.4645 27.3414V7.6562C59.4645 5.85482 57.9023 5.45368 57.9023 4.61427V4.45579C57.9023 4.0559 58.2222 3.85411 58.7033 3.65478L63.7519 1.17865C64.7934 0.657419 65.3959 1.21826 65.3959 1.8992V27.3501C65.3959 29.0314 67.118 29.3508 67.118 30.3524V30.5134C67.118 30.9133 66.7176 31.1931 66.1969 31.1931H58.8223C58.2619 31.1844 57.9023 30.9046 57.9023 30.5047Z" fill="black"/>
<path d="M35.1328 37.9703H37.5183C37.8406 37.9634 38.1618 38.0116 38.468 38.1126C38.7138 38.1945 38.9403 38.3255 39.1338 38.4977C39.307 38.6555 39.4426 38.8501 39.5305 39.0672C39.6184 39.2882 39.6631 39.524 39.6619 39.7617C39.6635 39.972 39.6213 40.1803 39.538 40.3734C39.4653 40.5429 39.3652 40.6993 39.2416 40.8364C39.1322 40.9586 39.0037 41.0623 38.861 41.1434C38.7469 41.2125 38.6207 41.2591 38.4891 41.2809C38.6587 41.3064 38.825 41.3505 38.985 41.4121C39.3785 41.5594 39.6988 41.8544 39.8777 42.2342C39.9901 42.4841 40.044 42.7564 40.0351 43.0302C40.0469 43.3567 39.9756 43.6808 39.8281 43.9724C39.6951 44.2179 39.5029 44.4264 39.2689 44.5791C39.0132 44.7408 38.7286 44.8517 38.4308 44.9059C38.0895 44.9703 37.7428 45.0018 37.3955 45H35.1378L35.1328 37.9703ZM37.3645 40.9008C37.5213 40.8997 37.6773 40.8801 37.8295 40.8426C37.9795 40.8056 38.1221 40.7432 38.251 40.6581C38.3772 40.5741 38.4824 40.4623 38.5585 40.3313C38.6393 40.1826 38.6791 40.0151 38.6738 39.8459C38.6815 39.6683 38.6417 39.4918 38.5585 39.3346C38.4836 39.2083 38.3778 39.1031 38.251 39.0288C38.1209 38.954 37.9779 38.904 37.8295 38.8815C37.6757 38.8571 37.5202 38.8446 37.3645 38.8443H36.1086V40.9008H37.3645ZM37.3323 44.1197C37.5228 44.1193 37.7132 44.109 37.9026 44.0888C38.0905 44.0695 38.2739 44.0197 38.4457 43.9415C38.6094 43.8654 38.7498 43.747 38.8523 43.5985C38.9547 43.4082 39.0082 43.1955 39.0082 42.9795C39.0082 42.7634 38.9547 42.5508 38.8523 42.3604C38.7537 42.2077 38.6203 42.0804 38.463 41.989C38.3012 41.8967 38.1239 41.8346 37.9398 41.8058C37.7584 41.7745 37.5747 41.7583 37.3906 41.7575H36.1036V44.1185L37.3323 44.1197Z" fill="black"/>
<path d="M45.5293 37.9703H46.5634L49.3183 45H48.1888L47.461 43.0402H44.5684L43.8407 45H42.7744L45.5293 37.9703ZM47.1548 42.1797L46.0141 39.092L44.8635 42.1797H47.1548Z" fill="black"/>
<path d="M52.3457 37.9703H53.371L57.2145 43.4623V37.9703H58.2064V45H57.1922L53.3401 39.4993V45H52.3482L52.3457 37.9703Z" fill="black"/>
<path d="M61.918 37.9703H62.921V41.1632L65.8644 37.9703H67.0261L64.4088 40.8364L67.3423 44.9988H66.1284L63.7219 41.5532L62.921 42.4199V45.0013H61.918V37.9703Z" fill="black"/>
</g>
<defs>
<clipPath id="clip0_404_59">
<rect width="104" height="45" fill="white"/>
</clipPath>
</defs>
</svg>
