<svg width="51" height="27" viewBox="0 0 51 27" fill="none" xmlns="http://www.w3.org/2000/svg">
<g clip-path="url(#clip0_407_31)">
<path d="M11.2062 20.2401C11.0807 20.2403 10.9569 20.2115 10.8443 20.156C10.7318 20.1005 10.6335 20.0197 10.5572 19.9201L0.168187 6.3401C0.0869373 6.2336 0.0332009 6.10872 0.0116322 5.97651C-0.00993649 5.84431 0.00134149 5.70884 0.0445301 5.58204C0.0877188 5.45525 0.16147 5.34102 0.259252 5.24946C0.357034 5.15791 0.475836 5.09184 0.605199 5.05708L6.11722 3.58009C6.24197 3.54824 6.37238 3.54585 6.4982 3.5731C6.62403 3.60035 6.74181 3.65647 6.8422 3.73707L13.3422 9.03709L44.1982 0.770094C44.8533 0.588624 45.5378 0.538689 46.2123 0.623152C46.8867 0.707615 47.5378 0.924791 48.1279 1.26219C48.718 1.59959 49.2354 2.05052 49.6503 2.58894C50.0652 3.12736 50.3694 3.7426 50.5453 4.39918C50.7211 5.05577 50.7652 5.74069 50.675 6.41441C50.5848 7.08814 50.3621 7.73735 50.0197 8.32454C49.6773 8.91173 49.222 9.42528 48.68 9.83558C48.1381 10.2459 47.5203 10.5448 46.8622 10.7151L11.4182 20.2151C11.3488 20.2322 11.2776 20.2406 11.2062 20.2401ZM2.20621 6.31709L11.5232 18.4971L46.4402 9.14009C47.3409 8.89901 48.1089 8.31001 48.5753 7.50267C49.0417 6.69532 49.1683 5.73577 48.9272 4.8351C48.6861 3.93442 48.0971 3.1664 47.2898 2.7C46.4824 2.23359 45.5229 2.10702 44.6222 2.3481L13.3682 10.7231C13.2436 10.7553 13.1131 10.758 12.9873 10.7309C12.8614 10.7038 12.7436 10.6477 12.6432 10.5671L6.13724 5.2671L2.20621 6.31709Z" fill="black"/>
<path d="M23.4479 26.574C23.3358 26.5735 23.2249 26.5499 23.1223 26.5048C23.0197 26.4597 22.9274 26.394 22.8512 26.3118C22.775 26.2296 22.7165 26.1326 22.6792 26.0268C22.642 25.9211 22.6269 25.8088 22.6349 25.697L23.3819 15.884L25.0088 16.008L24.3489 24.673L28.3949 23.589L33.6999 12.844L35.1618 13.566L29.6919 24.642C29.6403 24.7459 29.5672 24.8376 29.4776 24.9112C29.388 24.9848 29.2838 25.0386 29.1719 25.069L23.6598 26.546C23.5906 26.5641 23.5194 26.5735 23.4479 26.574Z" fill="black"/>
</g>
<defs>
<clipPath id="clip0_407_31">
<rect width="50.679" height="25.975" fill="white" transform="translate(0 0.595947)"/>
</clipPath>
</defs>
</svg>
