<svg width="55" height="25" viewBox="0 0 55 25" fill="none" xmlns="http://www.w3.org/2000/svg">
<g clip-path="url(#clip0_407_3)">
<path d="M12.5516 15.2409L11.9756 14.2329L13.9756 13.1609L11.9756 12.1049L12.5516 11.0969L14.4876 12.3129L14.3876 10.0249H15.5596L15.4796 12.3129L17.3996 11.0969L17.9756 12.1049L15.9756 13.1609L17.9756 14.2329L17.3996 15.2409L15.4796 14.0249L15.5596 16.2969H14.3916L14.4916 14.0249L12.5516 15.2409ZM20.5676 15.2409L19.9916 14.2329L21.9916 13.1609L19.9916 12.1049L20.5676 11.0969L22.4996 12.3129L22.3996 10.0249H23.5676L23.4996 12.3129L25.4196 11.0969L25.9956 12.1049L23.9956 13.1609L25.9956 14.2329L25.4196 15.2409L23.4996 14.0249L23.5796 16.2969H22.4076L22.5076 14.0249L20.5676 15.2409ZM28.5836 15.2409L28.0076 14.2329L30.0076 13.1609L28.0076 12.1049L28.5836 11.0969L30.5196 12.3129L30.4196 10.0249H31.5876L31.5076 12.3129L33.4276 11.0969L34.0036 12.1049L32.0036 13.1609L34.0036 14.2329L33.4276 15.2409L31.5076 14.0249L31.5876 16.2969H30.4236L30.5236 14.0249L28.5836 15.2409ZM36.5996 15.2409L36.0236 14.2329L38.0236 13.1609L36.0236 12.1049L36.5996 11.0969L38.5356 12.3129L38.4356 10.0249H39.6036L39.5236 12.3129L41.4436 11.0969L42.0196 12.1049L40.0196 13.1609L42.0196 14.2329L41.4436 15.2409L39.5236 14.0249L39.6036 16.2969H38.4396L38.5396 14.0249L36.5996 15.2409Z" fill="black"/>
<path d="M12.5 2C6.71028 2 2 6.71028 2 12.5C2 18.2897 6.71028 23 12.5 23H42.5C48.2897 23 53 18.2897 53 12.5C53 6.71028 48.2897 2 42.5 2H12.5ZM12.5 0H42.5C49.4036 0 55 5.59644 55 12.5C55 19.4036 49.4036 25 42.5 25H12.5C5.59644 25 0 19.4036 0 12.5C0 5.59644 5.59644 0 12.5 0Z" fill="black"/>
</g>
<defs>
<clipPath id="clip0_407_3">
<rect width="55" height="25" fill="white"/>
</clipPath>
</defs>
</svg>
