<svg width="38" height="27" viewBox="0 0 38 27" fill="none" xmlns="http://www.w3.org/2000/svg">
<g clip-path="url(#clip0_407_10)">
<path d="M18.601 26.6255H2.409C1.77025 26.625 1.15782 26.371 0.706161 25.9194C0.254501 25.4677 0.000529639 24.8553 0 24.2166V2.78357C0.000793864 2.14491 0.254848 1.5326 0.706451 1.08099C1.15805 0.62939 1.77033 0.375306 2.409 0.374512H18.602V1.84851H2.409C2.1611 1.84878 1.92343 1.94739 1.74814 2.12268C1.57285 2.29797 1.47426 2.53567 1.474 2.78357V24.2166C1.474 24.4645 1.5725 24.7023 1.74785 24.8777C1.9232 25.053 2.16102 25.1516 2.409 25.1516H18.602L18.601 26.6255Z" fill="black"/>
<path d="M20.8126 0.375488H18.6016V1.84949H20.8126V0.375488Z" fill="black"/>
<path d="M34.796 26.6255H34.116V25.1516H34.796C35.0439 25.1513 35.2816 25.0527 35.4569 24.8774C35.6322 24.7021 35.7308 24.4644 35.731 24.2166V23.0945H37.205V24.2166C37.2045 24.8553 36.9505 25.4677 36.4988 25.9194C36.0472 26.371 35.4348 26.625 34.796 26.6255ZM32.639 26.6255H28.209V25.1516H32.639V26.6255ZM26.732 26.6255H22.302V25.1516H26.732V26.6255ZM37.205 21.6176H35.731V17.1865H37.205V21.6176ZM37.205 15.7105H35.731V11.2795H37.205V15.7105ZM37.205 9.80353H35.731V5.37256H37.205V9.80353ZM37.205 3.89453H35.731V2.78357C35.7305 2.53575 35.6318 2.29822 35.4566 2.12299C35.2813 1.94775 35.0438 1.84904 34.796 1.84851H34.105V0.374512H34.796C35.4347 0.375306 36.047 0.62939 36.4986 1.08099C36.9502 1.5326 37.2042 2.14491 37.205 2.78357V3.89453ZM32.628 1.84851H28.198V0.374512H32.628V1.84851ZM26.721 1.84851H22.291V0.374512H26.721V1.84851Z" fill="black"/>
<path d="M20.8126 25.1516H18.6016V26.6256H20.8126V25.1516Z" fill="black"/>
<path d="M30.1632 21.4646C31.2015 21.4646 32.0432 20.6229 32.0432 19.5846C32.0432 18.5463 31.2015 17.7046 30.1632 17.7046C29.1249 17.7046 28.2832 18.5463 28.2832 19.5846C28.2832 20.6229 29.1249 21.4646 30.1632 21.4646Z" fill="black"/>
</g>
<defs>
<clipPath id="clip0_407_10">
<rect width="37.204" height="26.251" fill="white" transform="translate(0 0.374512)"/>
</clipPath>
</defs>
</svg>
