<svg width="32" height="48" viewBox="0 0 32 48" fill="none" xmlns="http://www.w3.org/2000/svg">
<g clip-path="url(#clip0_407_24)">
<path d="M15.9274 46.2658C11.9422 46.2658 8.1203 44.6827 5.30238 41.8648C2.48446 39.0468 0.901369 35.2249 0.901369 31.2398V23.2558C0.900975 22.972 0.956521 22.6908 1.06483 22.4285C1.17314 22.1661 1.3321 21.9277 1.5326 21.7268C1.73311 21.526 1.97124 21.3666 2.23339 21.2578C2.49553 21.149 2.77655 21.0929 3.06037 21.0928H28.7944C29.3669 21.093 29.9159 21.3206 30.3207 21.7254C30.7256 22.1303 30.9531 22.6793 30.9534 23.2518V31.2348C30.954 33.2084 30.5659 35.1629 29.811 36.9865C29.0562 38.8101 27.9495 40.4672 26.5541 41.863C25.1588 43.2588 23.5021 44.3661 21.6787 45.1215C19.8554 45.8769 17.901 46.2658 15.9274 46.2658V46.2658Z" stroke="black" stroke-width="2" stroke-linejoin="round"/>
<path d="M25.9134 10.8869C25.9134 8.23843 24.8613 5.69845 22.9886 3.82571C21.1158 1.95297 18.5759 0.900879 15.9274 0.900879C13.279 0.900879 10.739 1.95297 8.86624 3.82571C6.9935 5.69845 5.94141 8.23843 5.94141 10.8869V20.6079" stroke="black" stroke-width="2" stroke-linejoin="round"/>
<path d="M18.225 32.4399C18.225 32.8948 18.0901 33.3395 17.8374 33.7177C17.5847 34.0959 17.2254 34.3907 16.8052 34.5648C16.3849 34.7389 15.9224 34.7844 15.4763 34.6957C15.0301 34.607 14.6203 34.3879 14.2987 34.0662C13.977 33.7446 13.7579 33.3348 13.6692 32.8886C13.5804 32.4424 13.626 31.98 13.8001 31.5597C13.9742 31.1394 14.269 30.7802 14.6472 30.5275C15.0254 30.2748 15.4701 30.1399 15.925 30.1399C16.535 30.1399 17.12 30.3822 17.5513 30.8135C17.9827 31.2449 18.225 31.8299 18.225 32.4399Z" fill="black"/>
<path d="M16.0646 37.1109H15.7906C15.6724 37.1109 15.5554 37.0876 15.4462 37.0424C15.337 36.9972 15.2378 36.9309 15.1542 36.8473C15.0707 36.7637 15.0044 36.6645 14.9591 36.5553C14.9139 36.4461 14.8906 36.3291 14.8906 36.2109V33.5559H16.9636V36.2109C16.9636 36.4496 16.8688 36.6785 16.7 36.8473C16.5312 37.0161 16.3023 37.1109 16.0636 37.1109" fill="black"/>
</g>
<defs>
<clipPath id="clip0_407_24">
<rect width="31.854" height="47.167" fill="white"/>
</clipPath>
</defs>
</svg>
